<svg xmlns="http://www.w3.org/2000/svg" width="256" height="256" viewBox="0 0 256 256">
  <defs>
    <linearGradient id="night" x1="0" y1="0" x2="0" y2="1">
      <stop offset="0" stop-color="#101a31"/>
      <stop offset="1" stop-color="#e26035"/>
    </linearGradient>
  </defs>
  <rect width="256" height="256" rx="36" fill="url(#night)"/>
  <path d="M30 190 Q88 158 128 180 Q174 205 226 170 L226 226 L30 226Z" fill="#172a22"/>
  <path d="M122 198 C102 177 116 158 128 137 C134 159 155 174 137 199Z" fill="#ffbd4a"/>
  <path d="M126 200 C117 188 125 178 130 168 C134 181 142 190 134 201Z" fill="#fff0a1"/>
  <circle cx="194" cy="62" r="25" fill="#dfe8e9" opacity=".86"/>
  <path d="M54 52 L56 172 M56 90 Q82 78 94 96 M56 116 Q33 105 23 121" stroke="#111c1b" stroke-width="10" stroke-linecap="round" fill="none"/>
</svg>

